<svg width="28" height="28" viewBox="0 0 28 28" fill="none" xmlns="http://www.w3.org/2000/svg">
<path d="M10.5001 18.6667C10.5001 18.9761 10.3772 19.2728 10.1584 19.4916C9.93958 19.7104 9.64283 19.8333 9.33341 19.8333C9.024 19.8333 8.72725 19.7104 8.50846 19.4916C8.28966 19.2728 8.16675 18.9761 8.16675 18.6667C8.16675 18.3572 8.28966 18.0605 8.50846 17.8417C8.72725 17.6229 9.024 17.5 9.33341 17.5C9.64283 17.5 9.93958 17.6229 10.1584 17.8417C10.3772 18.0605 10.5001 18.3572 10.5001 18.6667ZM15.1667 18.6667C15.1667 18.9761 15.0438 19.2728 14.825 19.4916C14.6062 19.7104 14.3095 19.8333 14.0001 19.8333C13.6907 19.8333 13.3939 19.7104 13.1751 19.4916C12.9563 19.2728 12.8334 18.9761 12.8334 18.6667C12.8334 18.3572 12.9563 18.0605 13.1751 17.8417C13.3939 17.6229 13.6907 17.5 14.0001 17.5C14.3095 17.5 14.6062 17.6229 14.825 17.8417C15.0438 18.0605 15.1667 18.3572 15.1667 18.6667ZM18.6667 19.8333C18.9762 19.8333 19.2729 19.7104 19.4917 19.4916C19.7105 19.2728 19.8334 18.9761 19.8334 18.6667C19.8334 18.3572 19.7105 18.0605 19.4917 17.8417C19.2729 17.6229 18.9762 17.5 18.6667 17.5C18.3573 17.5 18.0606 17.6229 17.8418 17.8417C17.623 18.0605 17.5001 18.3572 17.5001 18.6667C17.5001 18.9761 17.623 19.2728 17.8418 19.4916C18.0606 19.7104 18.3573 19.8333 18.6667 19.8333Z" fill="black"/>
<path fill-rule="evenodd" clip-rule="evenodd" d="M6.12504 9.33331V10.8535C5.86021 10.8721 5.61171 10.8955 5.37604 10.9281C4.32604 11.0681 3.44171 11.3715 2.73937 12.0726C2.03704 12.775 1.73604 13.6593 1.59487 14.7093C1.45837 15.7208 1.45837 17.0076 1.45837 18.6025V18.7308C1.45837 20.3256 1.45837 21.6125 1.59487 22.624C1.73487 23.674 2.03821 24.5583 2.73937 25.2606C3.44171 25.963 4.32604 26.264 5.37604 26.4063C6.38754 26.5416 7.67437 26.5416 9.26921 26.5416H18.7309C20.3257 26.5416 21.6125 26.5416 22.624 26.4063C23.674 26.264 24.5584 25.963 25.2607 25.2606C25.963 24.5583 26.264 23.674 26.4064 22.624C26.5417 21.6125 26.5417 20.3256 26.5417 18.7308V18.6025C26.5417 17.0076 26.5417 15.7208 26.4064 14.7093C26.264 13.6593 25.963 12.775 25.2607 12.0726C24.5584 11.3703 23.674 11.0693 22.624 10.9281C22.3752 10.8954 22.1254 10.8705 21.875 10.8535V9.33331C21.875 7.24473 21.0454 5.2417 19.5685 3.76485C18.0917 2.288 16.0886 1.45831 14 1.45831C11.9115 1.45831 9.90842 2.288 8.43157 3.76485C6.95473 5.2417 6.12504 7.24473 6.12504 9.33331ZM14 3.20831C12.3756 3.20831 10.8177 3.85362 9.66901 5.00228C8.52035 6.15094 7.87504 7.70886 7.87504 9.33331V10.7951C8.31021 10.7916 8.77571 10.7916 9.26921 10.7916H18.7309C19.2244 10.7916 19.6899 10.7916 20.125 10.7951V9.33331C20.125 5.94998 17.3834 3.20831 14 3.20831ZM5.60937 12.6618C4.75304 12.7773 4.30037 12.9885 3.97721 13.3105C3.65404 13.6336 3.44404 14.0863 3.32854 14.9438C3.21071 15.8246 3.20837 16.9925 3.20837 18.6666C3.20837 20.3408 3.21071 21.5086 3.32854 22.3906C3.44404 23.247 3.65521 23.6996 3.97721 24.0228C4.30037 24.346 4.75304 24.556 5.61054 24.6715C6.49021 24.7893 7.65921 24.7916 9.33337 24.7916H18.6667C20.3409 24.7916 21.5087 24.7893 22.3907 24.6715C23.247 24.556 23.6997 24.3448 24.0229 24.0228C24.346 23.6996 24.556 23.247 24.6715 22.3895C24.7894 21.5086 24.7917 20.3408 24.7917 18.6666C24.7917 16.9925 24.7894 15.8235 24.6715 14.9426C24.556 14.0863 24.3449 13.6336 24.0229 13.3105C23.6997 12.9873 23.247 12.7773 22.3895 12.6618C21.5087 12.544 20.3409 12.5416 18.6667 12.5416H9.33337C7.65921 12.5416 6.49021 12.544 5.60937 12.6618Z" fill="black"/>
</svg>
